<svg xmlns="http://www.w3.org/2000/svg" width="280.121" height="64.76" viewBox="0 0 280.121 64.76">
  <g id="グループ_413" data-name="グループ 413" transform="translate(-610 -249.773)">
    <g id="グループ_143" data-name="グループ 143" transform="translate(610 287.946)">
      <path id="パス_6" data-name="パス 6" d="M322.5,665H185l-3.6,9.894H322.5Z" transform="translate(-181.4 -648.307)" fill="#fdbd55"/>
      <path id="パス_7" data-name="パス 7" d="M1056.4,588.894v9.894H1179.12L1149.762,572.2l.414,16.693Z" transform="translate(-898.999 -572.2)" fill="#fdbd55"/>
    </g>
    <g id="グループ_144" data-name="グループ 144" transform="translate(619.893 249.773)">
      <path id="パス_8" data-name="パス 8" d="M531.564,432.7a35.17,35.17,0,0,0-15.344,3.688l2.716,7.2c3.112-1.547,6.4-2.986,10.29-2.986,4.785,0,6.35,2.518,6.35,6.548v.252a26.939,26.939,0,0,0-5.954-.719c-7.052,0-15.021,2.662-15.021,11.081,0,7.052,6.08,11.207,12.556,11.207,3.076,0,6.3-.684,8.419-2.734v1.961H546.08V447.4C546.062,438.331,541.08,432.7,531.564,432.7Zm4.011,26.749a8.36,8.36,0,0,1-6.026,2.518c-2.464,0-4.731-1.619-4.731-4.209,0-3.688,3.436-5.055,6.6-5.055a19.06,19.06,0,0,1,4.137.576v6.17Z" transform="translate(-464.555 -419.622)" fill="#815296"/>
      <path id="パス_9" data-name="パス 9" d="M759.857,436.113c2.716,0,6.17,1.853,7.987,3.526l5.63-6.224A20.881,20.881,0,0,0,759.857,428c-6.548,0-12.826,4.083-12.826,11.207,0,6.026,5.145,8.868,9.174,10.685,3.364,1.547,6.476,2.59,6.476,4.857,0,1.619-2.393,2.267-3.76,2.267-3.562,0-5.7-1.691-8.419-4.281l-5.7,6.224a20.935,20.935,0,0,0,14.7,6.152c6.872,0,13.6-3.634,13.6-11.261,0-6.8-5.7-8.94-10.11-10.757-2.788-1.169-5.936-2.644-5.936-4.659A2.857,2.857,0,0,1,759.857,436.113Z" transform="translate(-653.345 -415.768)" fill="#815296"/>
      <path id="パス_10" data-name="パス 10" d="M986.117,432.7c-3.076,0-7.322.971-9.912,4.047v-3.274H965.7v50.908h10.488V464.954c2.518,3.112,6.8,4.011,9.84,4.011,8.994,0,15.794-8.023,15.794-18.007C1001.858,440.921,995.058,432.7,986.117,432.7Zm-2.59,27.469a9.037,9.037,0,0,1-7.321-3.238V445.472a8.372,8.372,0,0,1,7.447-3.958c4.731,0,7.573,4.533,7.573,9.192C991.244,455.168,988.78,460.169,983.527,460.169Z" transform="translate(-834.508 -419.622)" fill="#815296"/>
      <rect id="長方形_1231" data-name="長方形 1231" width="10.487" height="48.57" transform="translate(177.819)" fill="#815296"/>
      <path id="パス_11" data-name="パス 11" d="M1365.264,432.7a35.168,35.168,0,0,0-15.344,3.688l2.716,7.2c3.112-1.547,6.4-2.986,10.289-2.986,4.785,0,6.35,2.518,6.35,6.548v.252a26.936,26.936,0,0,0-5.954-.719c-7.052,0-15.021,2.662-15.021,11.081,0,7.052,6.08,11.207,12.556,11.207,3.076,0,6.3-.684,8.419-2.734v1.961h10.505V447.4C1379.78,438.331,1374.8,432.7,1365.264,432.7Zm4.029,26.749a8.36,8.36,0,0,1-6.026,2.518c-2.465,0-4.731-1.619-4.731-4.209,0-3.688,3.436-5.055,6.6-5.055a19.059,19.059,0,0,1,4.137.576v6.17Z" transform="translate(-1148.283 -419.622)" fill="#815296"/>
      <path id="パス_12" data-name="パス 12" d="M271.784,396.849l-1.079.935a13.576,13.576,0,0,1-8.779,3.436c-7.951,0-12.9-5.361-12.9-14,0-7.987,5.541-14,12.9-14a14.427,14.427,0,0,1,8.635,3.22l1.187.9,5.954-9.624-1.151-.719c-5.109-3.184-9.624-4.605-14.643-4.605-14.3,0-25.508,10.883-25.508,24.789,0,14.373,10.559,24.789,25.112,24.789a26.223,26.223,0,0,0,16.046-5.4l1.079-.827Z" transform="translate(-236.4 -361.968)" fill="#815296"/>
    </g>
  </g>
</svg>
