<svg xmlns="http://www.w3.org/2000/svg" width="118.121" height="27.308" viewBox="0 0 118.121 27.308">
  <g id="グループ_227" data-name="グループ 227" transform="translate(-623.939 -4018.692)">
    <g id="グループ_143" data-name="グループ 143" transform="translate(623.939 4034.789)" opacity="0.5">
      <path id="パス_6" data-name="パス 6" d="M240.9,665H182.917l-1.517,4.172h59.5Z" transform="translate(-181.4 -657.961)" fill="#fff"/>
      <path id="パス_7" data-name="パス 7" d="M1056.4,579.239v4.172h51.748l-12.38-11.211.174,7.039Z" transform="translate(-990.027 -572.2)" fill="#fff"/>
    </g>
    <g id="グループ_144" data-name="グループ 144" transform="translate(628.111 4018.692)">
      <path id="パス_8" data-name="パス 8" d="M521.753,432.7a14.831,14.831,0,0,0-6.47,1.555l1.145,3.034a9.613,9.613,0,0,1,4.339-1.259c2.018,0,2.678,1.062,2.678,2.761v.106a11.359,11.359,0,0,0-2.511-.3c-2.974,0-6.334,1.123-6.334,4.673,0,2.974,2.564,4.726,5.295,4.726a5.081,5.081,0,0,0,3.55-1.153v.827h4.43V438.9C527.867,435.074,525.766,432.7,521.753,432.7Zm1.692,11.28a3.525,3.525,0,0,1-2.541,1.062,1.86,1.86,0,0,1-1.995-1.775c0-1.555,1.449-2.132,2.784-2.132a8.039,8.039,0,0,1,1.745.243v2.6Z" transform="translate(-493.497 -427.185)" fill="#fff"/>
      <path id="パス_9" data-name="パス 9" d="M751.149,431.421a5.806,5.806,0,0,1,3.368,1.487l2.374-2.625A8.805,8.805,0,0,0,751.149,428c-2.761,0-5.408,1.722-5.408,4.726,0,2.541,2.169,3.74,3.869,4.506,1.418.652,2.731,1.092,2.731,2.048,0,.683-1.009.956-1.585.956-1.5,0-2.4-.713-3.55-1.805l-2.4,2.625a8.828,8.828,0,0,0,6.2,2.594c2.9,0,5.735-1.532,5.735-4.749,0-2.867-2.4-3.77-4.263-4.536-1.176-.493-2.5-1.115-2.5-1.965A1.2,1.2,0,0,1,751.149,431.421Z" transform="translate(-706.235 -422.842)" fill="#fff"/>
      <path id="パス_10" data-name="パス 10" d="M974.309,432.7a5.542,5.542,0,0,0-4.18,1.707v-1.381H965.7v21.467h4.422V446.3a5.387,5.387,0,0,0,4.149,1.692c3.793,0,6.66-3.383,6.66-7.593C980.947,436.167,978.079,432.7,974.309,432.7Zm-1.092,11.583a3.811,3.811,0,0,1-3.087-1.365v-4.832a3.53,3.53,0,0,1,3.14-1.669c1.995,0,3.193,1.912,3.193,3.876C976.471,442.174,975.432,444.283,973.217,444.283Z" transform="translate(-910.379 -427.185)" fill="#fff"/>
      <rect id="長方形_1231" data-name="長方形 1231" width="4.422" height="20.481" transform="translate(74.982)" fill="#fff"/>
      <path id="パス_11" data-name="パス 11" d="M1355.453,432.7a14.83,14.83,0,0,0-6.47,1.555l1.145,3.034a9.614,9.614,0,0,1,4.339-1.259c2.018,0,2.678,1.062,2.678,2.761v.106a11.357,11.357,0,0,0-2.511-.3c-2.974,0-6.334,1.123-6.334,4.673,0,2.974,2.564,4.726,5.295,4.726a5.081,5.081,0,0,0,3.55-1.153v.827h4.43V438.9C1361.574,435.074,1359.473,432.7,1355.453,432.7Zm1.7,11.28a3.525,3.525,0,0,1-2.541,1.062,1.86,1.86,0,0,1-1.995-1.775c0-1.555,1.449-2.132,2.784-2.132a8.037,8.037,0,0,1,1.745.243v2.6Z" transform="translate(-1263.957 -427.185)" fill="#fff"/>
      <path id="パス_12" data-name="パス 12" d="M251.321,376.926l-.455.394a5.725,5.725,0,0,1-3.7,1.449c-3.353,0-5.439-2.26-5.439-5.9,0-3.368,2.336-5.9,5.439-5.9a6.084,6.084,0,0,1,3.641,1.358l.5.379,2.511-4.058-.485-.3a11.212,11.212,0,0,0-6.175-1.942A10.494,10.494,0,0,0,236.4,372.853a10.174,10.174,0,0,0,10.589,10.453,11.058,11.058,0,0,0,6.766-2.276l.455-.349Z" transform="translate(-236.4 -362.218)" fill="#fff"/>
    </g>
  </g>
</svg>
