<?xml version="1.0" standalone="no"?>
<!DOCTYPE svg PUBLIC "-//W3C//DTD SVG 20010904//EN"
 "http://www.w3.org/TR/2001/REC-SVG-20010904/DTD/svg10.dtd">
<svg version="1.0" xmlns="http://www.w3.org/2000/svg"
 width="700.000000pt" height="700.000000pt" viewBox="0 0 700.000000 700.000000"
 preserveAspectRatio="xMidYMid meet">
<metadata>
Created by potrace 1.14, written by Peter Selinger 2001-2017
</metadata>
<g transform="translate(0.000000,700.000000) scale(0.100000,-0.100000)"
fill="#000000" stroke="none">
<path d="M3367 5764 c-1 -1 -39 -4 -85 -8 -332 -24 -640 -131 -927 -321 -336
-223 -587 -551 -713 -930 -44 -133 -73 -261 -88 -395 -23 -202 3 -542 52 -682
7 -21 11 -38 9 -38 -11 0 72 -217 121 -315 64 -129 115 -212 186 -304 59 -75
228 -247 303 -308 118 -95 303 -203 430 -252 33 -13 69 -27 80 -32 93 -41 305
-90 456 -106 95 -10 375 -10 459 0 344 40 668 170 962 386 l87 64 -28 36 c-15
20 -126 164 -246 321 -120 157 -223 291 -230 298 -9 10 -26 0 -80 -46 -289
-241 -600 -316 -955 -230 -135 33 -296 125 -399 229 -116 118 -215 314 -247
489 -2 14 -6 34 -9 46 -2 11 -7 49 -11 85 -27 277 15 505 131 716 71 129 184
254 300 331 66 44 87 55 177 95 128 56 339 78 496 51 162 -28 336 -108 492
-225 63 -48 92 -64 98 -56 6 7 96 152 202 322 106 171 203 326 216 346 l23 37
-82 50 c-339 207 -607 305 -927 338 -56 6 -248 12 -253 8z"/>
<path d="M4914 2539 c3 -134 8 -350 12 -479 l6 -235 -2098 0 -2099 0 -16 -47
c-8 -26 -19 -51 -22 -55 -4 -3 -7 -13 -7 -21 0 -8 -6 -28 -14 -45 -23 -53
-138 -371 -140 -387 -1 -13 366 -15 3031 -15 l3031 0 -36 33 c-20 19 -57 53
-82 75 -25 23 -85 78 -135 122 -49 44 -101 91 -116 105 -14 14 -59 54 -99 90
-40 36 -81 72 -89 80 -12 12 -215 196 -337 305 -6 6 -51 46 -100 91 -49 44
-145 132 -214 194 -69 62 -165 150 -214 194 -49 45 -112 102 -140 127 -28 25
-68 61 -90 79 l-38 34 6 -245z"/>
</g>
</svg>
